<svg width="20" height="20" viewBox="0 0 20 20" fill="none" xmlns="http://www.w3.org/2000/svg">
<path d="M15.334 15.1519C15.3628 15.1134 15.3911 15.0747 15.4189 15.0356C15.3911 15.0747 15.3628 15.1134 15.334 15.1519ZM15.334 15.1519C15.3252 15.1636 15.3165 15.1754 15.3076 15.187C15.3165 15.1754 15.3252 15.1636 15.334 15.1519ZM10.8486 3.41553C10.9371 3.53667 11.019 3.6623 11.0967 3.79053C11.0193 3.66245 10.9371 3.537 10.8486 3.41553ZM10.8486 3.41553C10.8203 3.37672 10.7902 3.3393 10.7607 3.30127C10.7901 3.33936 10.8204 3.37671 10.8486 3.41553ZM8.8291 17.4761C8.77717 17.4714 8.72552 17.4646 8.67383 17.4585C8.72553 17.4646 8.77717 17.4714 8.8291 17.4761ZM11.3311 17.4575C11.2761 17.464 11.2212 17.4711 11.166 17.4761C11.2212 17.4711 11.2761 17.464 11.3311 17.4575ZM8.56152 17.4448C8.52103 17.4393 8.48075 17.4327 8.44043 17.4263C8.48075 17.4327 8.52104 17.4393 8.56152 17.4448ZM11.5635 17.4243C11.5205 17.4312 11.4777 17.4389 11.4346 17.4448C11.4777 17.4389 11.5205 17.4312 11.5635 17.4243ZM8.29688 17.4028C8.23893 17.3922 8.18155 17.3791 8.12402 17.3667C8.18155 17.3791 8.23894 17.3922 8.29688 17.4028ZM11.8184 17.3784C11.778 17.3867 11.7378 17.3954 11.6973 17.4028C11.7378 17.3954 11.778 17.3867 11.8184 17.3784ZM8.05762 17.353C7.98888 17.3374 7.92059 17.3203 7.85254 17.3022C7.92059 17.3203 7.98889 17.3374 8.05762 17.353ZM12.084 17.3179C12.0424 17.3284 12.0009 17.3395 11.959 17.3491C12.0009 17.3395 12.0424 17.3284 12.084 17.3179ZM7.80273 17.2896C7.74182 17.2728 7.6814 17.2545 7.62109 17.2358C7.6814 17.2545 7.74183 17.2728 7.80273 17.2896ZM12.3428 17.2456C12.2996 17.2587 12.2564 17.2716 12.2129 17.2837C12.2564 17.2716 12.2996 17.2587 12.3428 17.2456ZM7.54395 17.2114C7.48527 17.1924 7.42717 17.1718 7.36914 17.1509C7.42716 17.1718 7.48528 17.1923 7.54395 17.2114ZM12.5879 17.1655C12.5463 17.1802 12.5048 17.1948 12.4629 17.2085C12.5048 17.1948 12.5463 17.1802 12.5879 17.1655ZM7.30273 17.1274C7.24208 17.1048 7.18194 17.0808 7.12207 17.0562C7.18194 17.0808 7.24209 17.1048 7.30273 17.1274ZM12.8643 17.0601C12.815 17.0802 12.7656 17.0998 12.7158 17.1187C12.7656 17.0998 12.815 17.0802 12.8643 17.0601ZM7.06152 17.0308C7.00251 17.0057 6.94392 16.9797 6.88574 16.9526C6.94392 16.9797 7.00252 17.0057 7.06152 17.0308ZM13.0801 16.9663C13.0331 16.9878 12.986 17.0086 12.9385 17.0288C12.986 17.0086 13.0331 16.9878 13.0801 16.9663ZM6.80371 16.9136C6.76242 16.8936 6.72149 16.873 6.68066 16.8521C6.72149 16.873 6.76243 16.8936 6.80371 16.9136ZM13.3047 16.8579C13.2751 16.873 13.2456 16.8883 13.2158 16.9028C13.2456 16.8883 13.2751 16.873 13.3047 16.8579ZM6.55957 16.7886C6.51436 16.764 6.46939 16.7391 6.4248 16.7134C6.46939 16.7391 6.51437 16.764 6.55957 16.7886ZM13.5723 16.7134C13.5274 16.7393 13.482 16.7639 13.4365 16.7886C13.482 16.7639 13.5274 16.7393 13.5723 16.7134ZM6.34668 16.6675C6.29839 16.6386 6.25062 16.6089 6.20312 16.5786C6.25062 16.6089 6.2984 16.6386 6.34668 16.6675ZM13.793 16.5786C13.7457 16.6087 13.6984 16.6388 13.6504 16.6675C13.6984 16.6388 13.7457 16.6087 13.793 16.5786ZM6.12793 16.5298C6.07535 16.4951 6.02321 16.4597 5.97168 16.4233C6.02321 16.4598 6.07536 16.4951 6.12793 16.5298ZM13.9902 16.4478C13.9542 16.4728 13.9174 16.4968 13.8809 16.521C13.9174 16.4968 13.9542 16.4728 13.9902 16.4478ZM5.91016 16.3784C5.86819 16.3479 5.82637 16.3173 5.78516 16.2856C5.82636 16.3173 5.8682 16.3479 5.91016 16.3784ZM14.2031 16.2925C14.1798 16.3103 14.1563 16.3278 14.1328 16.3452C14.1563 16.3278 14.1798 16.3103 14.2031 16.2925ZM5.6748 16.1987C5.63593 16.1674 5.59673 16.1364 5.55859 16.104C5.59673 16.1364 5.63594 16.1674 5.6748 16.1987ZM14.4375 16.104C14.3995 16.1362 14.3609 16.1675 14.3223 16.1987C14.3609 16.1675 14.3995 16.1362 14.4375 16.104ZM5.50684 16.0581C5.47136 16.0272 5.43519 15.9971 5.40039 15.9653C5.38625 15.9524 5.3724 15.9383 5.3584 15.9253C5.40692 15.9705 5.45666 16.0145 5.50684 16.0581ZM14.5967 15.9653C14.5643 15.9949 14.5301 16.0225 14.4971 16.0513C14.5395 16.0142 14.5818 15.9771 14.623 15.939C14.614 15.9473 14.6058 15.957 14.5967 15.9653ZM5.31348 15.8823C5.26703 15.8381 5.22063 15.7941 5.17578 15.7485C5.22063 15.7941 5.26705 15.8382 5.31348 15.8823ZM9.38965 14.4536C9.45949 14.5408 9.52817 14.6292 9.59375 14.7202L9.99902 15.2837L10.4053 14.7202C10.4143 14.7077 10.4235 14.6955 10.4326 14.6831C10.2753 14.8985 10.13 15.1236 9.99902 15.3579C9.82065 15.0388 9.61613 14.7369 9.38965 14.4536ZM14.8193 15.7495C14.7917 15.7775 14.7636 15.805 14.7354 15.8325C14.7636 15.805 14.7917 15.7775 14.8193 15.7495ZM4.00781 14.0425C4.28078 14.648 4.65577 15.2047 5.11816 15.688C4.65467 15.2037 4.2803 14.6468 4.00781 14.0425ZM15.0059 15.5522C14.9908 15.569 14.9752 15.5854 14.96 15.6021C14.9752 15.5854 14.9908 15.569 15.0059 15.5522ZM15.1729 15.3579C15.1579 15.3761 15.1421 15.3936 15.127 15.4116C15.1421 15.3936 15.1579 15.3761 15.1729 15.3579ZM10.541 14.5376C10.5523 14.523 10.5647 14.5092 10.5762 14.4946C10.5647 14.5092 10.5523 14.523 10.541 14.5376ZM9.24316 14.2759C9.2689 14.3058 9.29411 14.3363 9.31934 14.3667C9.29414 14.3363 9.26889 14.3059 9.24316 14.2759ZM10.6953 14.3472C10.7153 14.3232 10.7356 14.2995 10.7559 14.2759C10.7356 14.2995 10.7153 14.3232 10.6953 14.3472ZM15.959 14.1069C15.9367 14.1549 15.9152 14.2032 15.8916 14.2505C15.9152 14.2032 15.9367 14.1549 15.959 14.1069ZM3.99512 14.0161C3.97632 13.9739 3.95921 13.9309 3.94141 13.8882C3.9592 13.9309 3.97633 13.9739 3.99512 14.0161ZM16.0586 13.8804C16.0411 13.9224 16.0243 13.9647 16.0059 14.0063C16.0243 13.9647 16.0411 13.9224 16.0586 13.8804ZM8.91797 13.9243C8.93419 13.9407 8.94977 13.9576 8.96582 13.9741C8.94978 13.9576 8.93418 13.9407 8.91797 13.9243ZM3.80957 13.5454C3.75744 13.3944 3.7126 13.2408 3.67285 13.0854C3.71261 13.2408 3.75748 13.3945 3.80957 13.5454ZM16.167 13.5991C16.147 13.6553 16.1272 13.7116 16.1055 13.7671C16.1272 13.7116 16.147 13.6553 16.167 13.5991ZM16.2432 13.3706C16.2273 13.4216 16.2115 13.4725 16.1943 13.5229C16.2115 13.4725 16.2273 13.4216 16.2432 13.3706ZM16.3047 13.1567C16.2953 13.1916 16.2864 13.2266 16.2764 13.2612C16.2864 13.2266 16.2953 13.1916 16.3047 13.1567ZM7.94141 13.1128C7.96193 13.1268 7.98256 13.1406 8.00293 13.1548C7.98256 13.1406 7.96194 13.1268 7.94141 13.1128ZM7.71484 12.9653C7.74689 12.9853 7.77885 13.0054 7.81055 13.0259C7.77886 13.0054 7.74691 12.9853 7.71484 12.9653ZM16.3799 12.8462C16.3679 12.9027 16.3554 12.9591 16.3418 13.0151C16.3554 12.9591 16.3679 12.9027 16.3799 12.8462ZM3.6543 13.0122C3.64095 12.9571 3.62895 12.9017 3.61719 12.8462C3.62895 12.9017 3.64096 12.9571 3.6543 13.0122ZM12.2236 13.0024C12.2298 12.9985 12.236 12.9946 12.2422 12.9907C12.236 12.9946 12.2298 12.9985 12.2236 13.0024ZM7.52441 12.8511C7.55198 12.867 7.57912 12.8836 7.60645 12.8999C7.57912 12.8836 7.55199 12.867 7.52441 12.8511ZM12.4111 12.8882C12.4311 12.8763 12.4506 12.8637 12.4707 12.8521C12.4506 12.8637 12.4311 12.8764 12.4111 12.8882ZM3.59961 12.7622C3.58642 12.6951 3.57434 12.6278 3.56348 12.5601C3.57434 12.6278 3.58643 12.6951 3.59961 12.7622ZM7.30859 12.731C7.32766 12.741 7.34628 12.7519 7.36523 12.7622C7.34626 12.7519 7.32765 12.741 7.30859 12.731ZM16.4229 12.6216C16.416 12.6617 16.4091 12.7018 16.4014 12.7417C16.4091 12.7018 16.416 12.6617 16.4229 12.6216ZM6.77734 12.481C6.91837 12.5403 7.05725 12.6037 7.19336 12.6724C7.05675 12.6036 6.91793 12.54 6.77734 12.481ZM13.0137 12.5718C12.9597 12.5966 12.9059 12.6216 12.8525 12.6479C12.9058 12.6216 12.9597 12.5967 13.0137 12.5718ZM13.1182 12.5239C13.1443 12.5124 13.1709 12.5019 13.1973 12.4907C13.1709 12.5019 13.1444 12.5124 13.1182 12.5239ZM6.54199 12.3872C6.57982 12.4014 6.61776 12.4153 6.65527 12.4302C6.61772 12.4153 6.57979 12.4014 6.54199 12.3872ZM13.3418 12.4302C13.3796 12.4151 13.4179 12.4016 13.4561 12.3872C13.418 12.4015 13.3796 12.4152 13.3418 12.4302ZM3.56348 8.04932C3.84246 9.71359 4.92922 11.3434 6.23242 12.2368V12.2378L6.26758 12.2632L6.32812 12.3091L6.40039 12.3345C6.41409 12.3393 6.42774 12.3442 6.44141 12.3491C5.84695 12.1368 5.22403 12.0114 4.5918 11.9751C4.60546 11.9759 4.61915 11.9762 4.63281 11.9771L5.80566 12.0532L5.04688 11.1558C4.31869 10.2937 3.77621 9.2203 3.57617 8.13037L3.56348 8.04932ZM15.2871 10.7192C15.1794 10.8694 15.0674 11.0159 14.9492 11.1558L14.1904 12.0532L15.3643 11.9771C15.3779 11.9762 15.3916 11.9759 15.4053 11.9751C14.7731 12.0115 14.1501 12.1368 13.5557 12.3491C13.5696 12.3441 13.5837 12.3394 13.5977 12.3345L13.6699 12.3091L13.7305 12.2632L13.7646 12.2368C14.3288 11.8497 14.8521 11.3253 15.2871 10.7192ZM4.37109 11.9653C4.38216 11.9656 4.39323 11.966 4.4043 11.9663C4.39323 11.966 4.38216 11.9656 4.37109 11.9653ZM15.5918 11.9663C15.6029 11.966 15.6139 11.9656 15.625 11.9653C15.6139 11.9656 15.6029 11.966 15.5918 11.9663ZM15.9023 11.9644C15.8678 11.9638 15.8333 11.9634 15.7988 11.9634C15.8333 11.9634 15.8678 11.9637 15.9023 11.9644ZM11.2676 4.09521C11.4141 4.37792 11.5367 4.6738 11.6299 4.98096C11.9101 5.90534 11.9293 6.88932 11.6846 7.82373L11.377 8.99854L12.4229 8.38037C12.4325 8.37466 12.4425 8.36943 12.4521 8.36377C12.2042 8.50821 11.9643 8.66826 11.7354 8.84521L11.499 9.03662C10.8523 9.58388 10.5525 10.109 10.3604 10.5698L10.1953 11.0073C10.1254 11.2038 10.07 11.3575 9.99902 11.4995L9.90039 11.2739C9.86892 11.1932 9.83688 11.1055 9.80176 11.0073C9.60573 10.4538 9.36013 9.76537 8.5 9.03662C8.20083 8.78272 7.88086 8.55875 7.5459 8.36377C7.55559 8.36943 7.56553 8.37466 7.5752 8.38037L8.62109 8.99854L8.31348 7.82373C8.30739 7.8005 8.30263 7.77671 8.29688 7.75342C8.51931 8.65605 8.98054 9.49149 9.6416 10.1665L9.99805 10.5308L10.3555 10.1665C11.3146 9.18715 11.8516 7.87029 11.8516 6.49951C11.8515 5.6554 11.6481 4.83201 11.2676 4.09521ZM15.6367 10.1841C15.5938 10.2572 15.5495 10.3294 15.5039 10.4009C15.5494 10.3295 15.5937 10.2572 15.6367 10.1841ZM15.7861 9.91553C15.7702 9.94565 15.7537 9.97548 15.7373 10.0054C15.7537 9.97549 15.7702 9.94565 15.7861 9.91553ZM15.9326 9.62158C15.9045 9.68151 15.8756 9.74113 15.8457 9.80029C15.8756 9.74115 15.9045 9.68152 15.9326 9.62158ZM16.1777 9.02393C16.114 9.20431 16.0421 9.38269 15.9619 9.55811C16.042 9.38286 16.1139 9.20443 16.1777 9.02393ZM16.2754 8.7251C16.258 8.78363 16.2389 8.84171 16.2197 8.8999C16.2389 8.84172 16.258 8.78364 16.2754 8.7251ZM16.3467 8.46045C16.3323 8.51876 16.318 8.57718 16.3018 8.63525C16.318 8.5772 16.3323 8.51877 16.3467 8.46045ZM7.31738 8.23682C7.34913 8.25371 7.3806 8.27114 7.41211 8.28857C7.38058 8.27119 7.34917 8.25367 7.31738 8.23682ZM12.585 8.28857C12.6175 8.27058 12.6498 8.25229 12.6826 8.23486C12.6498 8.25226 12.6175 8.27061 12.585 8.28857ZM12.8145 8.1665C12.8664 8.14038 12.9191 8.11601 12.9717 8.09131C12.9191 8.11598 12.8664 8.14044 12.8145 8.1665ZM7.04883 8.10205C7.08932 8.12128 7.12979 8.14057 7.16992 8.16064C7.12977 8.14063 7.08935 8.12124 7.04883 8.10205ZM16.4238 8.10205C16.4209 8.1187 16.4172 8.13521 16.4141 8.15186C16.4172 8.13522 16.4209 8.1187 16.4238 8.10205ZM13.0625 8.04932C13.1271 8.02011 13.1924 7.9924 13.2578 7.96533C13.1923 7.99238 13.1271 8.02017 13.0625 8.04932ZM6.76758 7.97705C6.82121 7.99952 6.87465 8.02248 6.92773 8.04639C6.87464 8.02254 6.82126 7.99948 6.76758 7.97705ZM5.85938 7.67139C6.13697 7.74268 6.41001 7.83186 6.67676 7.93896C6.41042 7.83232 6.13749 7.74266 5.85938 7.67139ZM13.8555 7.74951C13.6741 7.80474 13.4953 7.86838 13.3193 7.93896C13.4955 7.86819 13.6743 7.80473 13.8555 7.74951ZM13.8926 7.73877C13.9758 7.71394 14.0595 7.69095 14.1436 7.66943C14.0594 7.69095 13.9757 7.71398 13.8926 7.73877ZM8.14453 6.52979C8.14679 6.9232 8.19522 7.31158 8.2832 7.68896C8.19394 7.3072 8.14682 6.91887 8.14453 6.52979ZM14.1787 7.66064C14.2526 7.64217 14.3269 7.62577 14.4014 7.60986C14.3269 7.62577 14.2525 7.64219 14.1787 7.66064ZM5.59668 7.60986C5.66627 7.62473 5.73561 7.6406 5.80469 7.65771C5.73564 7.64065 5.6663 7.62471 5.59668 7.60986ZM4.65723 7.47803C4.94337 7.49712 5.22739 7.53541 5.50781 7.59131C5.22792 7.53562 4.94386 7.49716 4.65723 7.47803ZM15.3408 7.47803C15.0532 7.49731 14.7681 7.53522 14.4873 7.59131C14.7686 7.53512 15.0537 7.49717 15.3408 7.47803ZM4.34863 7.46533C4.44354 7.46721 4.53826 7.47109 4.63281 7.47705C4.53834 7.47109 4.44358 7.46723 4.34863 7.46533ZM15.3652 7.47705C15.4497 7.47173 15.5344 7.4674 15.6191 7.46533C15.5343 7.46744 15.4497 7.4717 15.3652 7.47705ZM15.8867 7.46436C15.8303 7.46348 15.774 7.4638 15.7178 7.46436C15.7741 7.46383 15.8304 7.46344 15.8867 7.46436ZM8.14453 6.49951C8.14452 6.42099 8.14686 6.3426 8.15039 6.26416C8.14687 6.3424 8.14453 6.42086 8.14453 6.49951ZM8.2373 5.52686C8.1948 5.75174 8.16606 5.97992 8.15332 6.21045C8.16599 5.98121 8.19446 5.75318 8.2373 5.52686ZM8.25195 5.44873C8.26528 5.38377 8.2791 5.31893 8.29492 5.25439C8.27916 5.3188 8.26527 5.38368 8.25195 5.44873ZM8.41309 4.84814C8.3867 4.92758 8.36242 5.00769 8.33984 5.08838C8.34983 5.05275 8.35741 5.01642 8.36816 4.98096C8.38171 4.9363 8.39837 4.89234 8.41309 4.84814ZM8.4541 4.7251C8.47636 4.66337 8.49989 4.60223 8.52441 4.5415C8.49993 4.60228 8.4763 4.66343 8.4541 4.7251ZM8.69043 4.17529C8.64439 4.26829 8.59999 4.36201 8.55957 4.45752C8.60013 4.36189 8.64435 4.26815 8.69043 4.17529ZM11.1523 3.88623C11.1836 3.94027 11.2149 3.99417 11.2441 4.04932C11.215 3.9942 11.1835 3.94033 11.1523 3.88623ZM8.76172 4.03271C8.78552 3.98822 8.81087 3.94465 8.83594 3.90088C8.81091 3.94469 8.78545 3.98824 8.76172 4.03271ZM8.92871 3.74561C8.95079 3.70996 8.97121 3.67328 8.99414 3.63818C8.97124 3.67332 8.95074 3.70996 8.92871 3.74561ZM9.15918 3.39893C9.17828 3.37297 9.19917 3.34836 9.21875 3.32275C9.1992 3.34839 9.17823 3.37296 9.15918 3.39893ZM10.5654 3.06299C10.5926 3.09417 10.6191 3.12592 10.6455 3.15771C10.6191 3.1259 10.5926 3.09423 10.5654 3.06299ZM9.35645 3.1499C9.37745 3.12472 9.39843 3.09951 9.41992 3.07471C9.39846 3.09955 9.37741 3.1247 9.35645 3.1499ZM3.8916 13.7671C3.86899 13.7093 3.84793 13.6509 3.82715 13.5923C3.84792 13.6509 3.86901 13.7093 3.8916 13.7671ZM15.4512 10.481C15.4013 10.5568 15.3504 10.6319 15.2979 10.7056C15.3504 10.6319 15.4013 10.5569 15.4512 10.481Z" fill="black" stroke="black"/>
</svg>
