<svg width="16" height="16" viewBox="0 0 16 16" fill="none" xmlns="http://www.w3.org/2000/svg">
<path d="M11.3333 9.33333C11.5101 9.33333 11.6797 9.2631 11.8047 9.13807C11.9298 9.01305 12 8.84348 12 8.66667C12 8.48986 11.9298 8.32029 11.8047 8.19526C11.6797 8.07024 11.5101 8 11.3333 8C11.1565 8 10.987 8.07024 10.8619 8.19526C10.7369 8.32029 10.6667 8.48986 10.6667 8.66667C10.6667 8.84348 10.7369 9.01305 10.8619 9.13807C10.987 9.2631 11.1565 9.33333 11.3333 9.33333ZM11.3333 12C11.5101 12 11.6797 11.9298 11.8047 11.8047C11.9298 11.6797 12 11.5101 12 11.3333C12 11.1565 11.9298 10.987 11.8047 10.8619C11.6797 10.7369 11.5101 10.6667 11.3333 10.6667C11.1565 10.6667 10.987 10.7369 10.8619 10.8619C10.7369 10.987 10.6667 11.1565 10.6667 11.3333C10.6667 11.5101 10.7369 11.6797 10.8619 11.8047C10.987 11.9298 11.1565 12 11.3333 12ZM8.66667 8.66667C8.66667 8.84348 8.59643 9.01305 8.4714 9.13807C8.34638 9.2631 8.17681 9.33333 8 9.33333C7.82319 9.33333 7.65362 9.2631 7.5286 9.13807C7.40357 9.01305 7.33333 8.84348 7.33333 8.66667C7.33333 8.48986 7.40357 8.32029 7.5286 8.19526C7.65362 8.07024 7.82319 8 8 8C8.17681 8 8.34638 8.07024 8.4714 8.19526C8.59643 8.32029 8.66667 8.48986 8.66667 8.66667ZM8.66667 11.3333C8.66667 11.5101 8.59643 11.6797 8.4714 11.8047C8.34638 11.9298 8.17681 12 8 12C7.82319 12 7.65362 11.9298 7.5286 11.8047C7.40357 11.6797 7.33333 11.5101 7.33333 11.3333C7.33333 11.1565 7.40357 10.987 7.5286 10.8619C7.65362 10.7369 7.82319 10.6667 8 10.6667C8.17681 10.6667 8.34638 10.7369 8.4714 10.8619C8.59643 10.987 8.66667 11.1565 8.66667 11.3333ZM4.66667 9.33333C4.84348 9.33333 5.01305 9.2631 5.13807 9.13807C5.2631 9.01305 5.33333 8.84348 5.33333 8.66667C5.33333 8.48986 5.2631 8.32029 5.13807 8.19526C5.01305 8.07024 4.84348 8 4.66667 8C4.48986 8 4.32029 8.07024 4.19526 8.19526C4.07024 8.32029 4 8.48986 4 8.66667C4 8.84348 4.07024 9.01305 4.19526 9.13807C4.32029 9.2631 4.48986 9.33333 4.66667 9.33333ZM4.66667 12C4.84348 12 5.01305 11.9298 5.13807 11.8047C5.2631 11.6797 5.33333 11.5101 5.33333 11.3333C5.33333 11.1565 5.2631 10.987 5.13807 10.8619C5.01305 10.7369 4.84348 10.6667 4.66667 10.6667C4.48986 10.6667 4.32029 10.7369 4.19526 10.8619C4.07024 10.987 4 11.1565 4 11.3333C4 11.5101 4.07024 11.6797 4.19526 11.8047C4.32029 11.9298 4.48986 12 4.66667 12Z" fill="#093832"/>
<path fill-rule="evenodd" clip-rule="evenodd" d="M4.6686 1.1665C4.80121 1.1665 4.92839 1.21918 5.02216 1.31295C5.11593 1.40672 5.1686 1.5339 5.1686 1.6665V2.17517C5.60994 2.1665 6.09594 2.1665 6.6306 2.1665H9.3726C9.90794 2.1665 10.3939 2.1665 10.8353 2.17517V1.6665C10.8353 1.5339 10.8879 1.40672 10.9817 1.31295C11.0755 1.21918 11.2027 1.1665 11.3353 1.1665C11.4679 1.1665 11.5951 1.21918 11.6888 1.31295C11.7826 1.40672 11.8353 1.5339 11.8353 1.6665V2.21784C12.0086 2.23117 12.1728 2.24806 12.3279 2.2685C13.1093 2.37384 13.7419 2.59517 14.2413 3.09384C14.7399 3.59317 14.9613 4.22584 15.0666 5.00717C15.1686 5.76717 15.1686 6.73717 15.1686 7.9625V9.3705C15.1686 10.5958 15.1686 11.5665 15.0666 12.3258C14.9613 13.1072 14.7399 13.7398 14.2413 14.2392C13.7419 14.7378 13.1093 14.9592 12.3279 15.0645C11.5679 15.1665 10.5979 15.1665 9.3726 15.1665H6.63194C5.4066 15.1665 4.43594 15.1665 3.6766 15.0645C2.89527 14.9592 2.2626 14.7378 1.76327 14.2392C1.2646 13.7398 1.04327 13.1072 0.937938 12.3258C0.835938 11.5658 0.835938 10.5958 0.835938 9.3705V7.9625C0.835938 6.73717 0.835938 5.7665 0.937938 5.00717C1.04327 4.22584 1.2646 3.59317 1.76327 3.09384C2.2626 2.59517 2.89527 2.37384 3.6766 2.2685C3.83216 2.24806 3.99638 2.23117 4.16927 2.21784V1.6665C4.16927 1.53401 4.22186 1.40694 4.31548 1.31319C4.40911 1.21944 4.53611 1.16668 4.6686 1.1665ZM3.8086 3.25984C3.1386 3.34984 2.75194 3.51917 2.46994 3.80117C2.18794 4.08317 2.0186 4.46984 1.9286 5.13984C1.91349 5.25317 1.9006 5.37295 1.88994 5.49917H14.1139C14.1033 5.37295 14.0904 5.25295 14.0753 5.13917C13.9853 4.46917 13.8159 4.0825 13.5339 3.8005C13.2519 3.5185 12.8653 3.34917 12.1946 3.25917C11.5099 3.16717 10.6066 3.16584 9.33527 3.16584H6.6686C5.39727 3.16584 4.4946 3.16784 3.8086 3.25984ZM1.83527 7.99984C1.83527 7.4305 1.83527 6.93517 1.84394 6.49984H14.1599C14.1686 6.93517 14.1686 7.4305 14.1686 7.99984V9.33317C14.1686 10.6045 14.1673 11.5078 14.0753 12.1932C13.9853 12.8632 13.8159 13.2498 13.5339 13.5318C13.2519 13.8138 12.8653 13.9832 12.1946 14.0732C11.5099 14.1652 10.6066 14.1665 9.33527 14.1665H6.6686C5.39727 14.1665 4.4946 14.1652 3.8086 14.0732C3.1386 13.9832 2.75194 13.8138 2.46994 13.5318C2.18794 13.2498 2.0186 12.8632 1.9286 12.1925C1.8366 11.5078 1.83527 10.6045 1.83527 9.33317V7.99984Z" fill="#093832"/>
</svg>
